<?xml version="1.0" standalone="no"?><!DOCTYPE svg PUBLIC "-//W3C//DTD SVG 1.1//EN" "http://www.w3.org/Graphics/SVG/1.1/DTD/svg11.dtd"><svg class="icon" width="200px" height="200.00px" viewBox="0 0 1024 1024" version="1.1" xmlns="http://www.w3.org/2000/svg"><path fill="#ffffff" d="M879.488423 92.01323c80.158765 0 145.076075 64.91731 145.076075 145.076075v550.385888c0 80.158765-64.91731 145.076075-145.076075 145.076075H145.076075C64.91731 931.98677 0 867.06946 0 786.910695V237.089305c0-80.158765 64.91731-145.076075 145.076075-145.076075h734.412348z m76.207277 284.507167H68.3043v410.954796c0 41.772878 33.305402 75.642778 75.07828 76.207277H878.923925c41.772878 0 75.642778-33.305402 76.207277-75.07828v-1.128997l0.564498-410.954796zM441.437707 461.759647c3.951488 0 7.338479 1.128997 10.725468 2.822492l205.477398 122.496141c10.16097 6.209482 13.54796 18.628445 7.338479 28.789416-1.693495 2.822492-4.515987 5.644983-7.338479 7.338478L452.163175 745.137817c-10.16097 6.209482-23.144432 2.822492-28.789415-7.338479-1.693495-3.38699-2.822492-6.77398-2.822492-10.725468V482.646086c0-11.289967 9.596472-20.886439 20.886439-20.886439zM68.3043 235.39581V307.651599h101.609702L75.642778 204.9129c-4.515987 9.596472-6.77398 20.32194-7.338478 30.48291z m811.184123-75.07828h-95.964718L910.535832 304.829107c0.564498 1.128997 1.693495 1.693495 2.257994 2.822492h43.466372V237.089305c0-41.772878-33.305402-75.642778-75.07828-76.207276l-1.693495-0.564499z m-187.413451 0h-125.318632l125.318632 145.076075c0.564498 0.564498 1.128997 1.693495 1.693495 2.257994h127.576627l-129.270122-147.334069z m-216.202866 0H353.375965l125.318633 145.076075c0.564498 0.564498 1.128997 1.693495 1.693495 2.257994h123.060639c0 0.564498-127.576626-147.334068-127.576626-147.334069z m-212.815877 0H145.076075c-5.080485 0-10.16097 0.564498-15.241455 1.693495l132.092613 143.947079 1.693495 1.693495h127.576626L263.056229 160.31753z" /></svg>