<?xml version="1.0" standalone="no"?><!DOCTYPE svg PUBLIC "-//W3C//DTD SVG 1.1//EN" "http://www.w3.org/Graphics/SVG/1.1/DTD/svg11.dtd"><svg class="icon" width="200px" height="200.00px" viewBox="0 0 1024 1024" version="1.1" xmlns="http://www.w3.org/2000/svg"><path fill="#ffffff" d="M64 960V64h736v224H960v560a112 112 0 0 1-95.936 110.848L864 960H64zM736 128H128v768h618.816a111.552 111.552 0 0 1-10.816-48V128zM896 352h-96v496c0 24.32 18.048 44.352 41.472 47.552l6.528 0.448a48 48 0 0 0 47.552-41.472L896 848V352z m-224 384v64H192v-64h480z m0-160v64H192V576h480zM448 224v256H192v-256h256zM672 384v64H512V384h160zM384 288H256v128h128v-128z m288-32v64H512V256h160z"  /></svg>