<?xml version="1.0" standalone="no"?><!DOCTYPE svg PUBLIC "-//W3C//DTD SVG 1.1//EN" "http://www.w3.org/Graphics/SVG/1.1/DTD/svg11.dtd"><svg class="icon" width="200px" height="200.00px" viewBox="0 0 1024 1024" version="1.1" xmlns="http://www.w3.org/2000/svg"><path fill="#ffffff" d="M590.506667 81.92h-145.066667a25.6 25.6 0 1 1 0-52.906667h145.066667a25.6 25.6 0 0 1 0 52.906667zM824.32 1022.293333H211.626667A197.973333 197.973333 0 0 1 13.653333 824.32v-597.333333A197.973333 197.973333 0 0 1 211.626667 29.013333h66.56a25.6 25.6 0 1 1 0 52.906667h-66.56a145.066667 145.066667 0 0 0-145.066667 145.066667v597.333333a145.066667 145.066667 0 0 0 145.066667 145.066667h612.693333a145.066667 145.066667 0 0 0 145.066667-145.066667V716.8a25.6 25.6 0 1 1 52.906666 0v107.52a197.973333 197.973333 0 0 1-197.973333 197.973333zM994.986667 503.466667a25.6 25.6 0 0 1-25.6-25.6V228.693333a145.066667 145.066667 0 0 0-145.066667-145.066666h-81.92a25.6 25.6 0 1 1 0-52.906667h81.92a197.973333 197.973333 0 0 1 197.973333 197.973333v247.466667a25.6 25.6 0 0 1-27.306666 27.306667z"  /><path fill="#ffffff" d="M977.92 351.573333H58.026667a25.6 25.6 0 0 1 0-52.906666h919.893333a25.6 25.6 0 1 1 0 52.906666zM365.226667 162.133333A25.6 25.6 0 0 1 339.626667 136.533333V30.72a25.6 25.6 0 0 1 52.906666 0v104.106667a25.6 25.6 0 0 1-27.306666 27.306666zM670.72 162.133333A25.6 25.6 0 0 1 645.12 136.533333V30.72a25.6 25.6 0 1 1 52.906667 0v104.106667a25.6 25.6 0 0 1-27.306667 27.306666zM462.506667 793.6A27.306667 27.306667 0 0 1 443.733333 785.066667l-167.253333-167.253334a25.6 25.6 0 0 1 37.546667-37.546666l148.48 148.48 259.413333-259.413334a25.6 25.6 0 1 1 37.546667 37.546667L481.28 785.066667a25.6 25.6 0 0 1-18.773333 8.533333z"  /></svg>